<?xml version="1.0" encoding="UTF-8"?>
<svg width="32" height="32" viewBox="0 0 32 32" fill="none" xmlns="http://www.w3.org/2000/svg">
  <defs>
    <linearGradient id="bgGradient" x1="0%" y1="0%" x2="100%" y2="100%">
      <stop offset="0%" style="stop-color:#4F8EF7;stop-opacity:1" />
      <stop offset="100%" style="stop-color:#2563EB;stop-opacity:1" />
    </linearGradient>
    <linearGradient id="innerGradient" x1="0%" y1="0%" x2="100%" y2="100%">
      <stop offset="0%" style="stop-color:#FFFFFF;stop-opacity:1" />
      <stop offset="100%" style="stop-color:#F8FAFC;stop-opacity:1" />
    </linearGradient>
    <filter id="shadow" x="-20%" y="-20%" width="140%" height="140%">
      <feDropShadow dx="0" dy="1" stdDeviation="1" flood-color="#000000" flood-opacity="0.1"/>
    </filter>
  </defs>

  <!-- Main container with 3D effect -->
  <rect width="32" height="32" rx="7" fill="url(#bgGradient)" filter="url(#shadow)"/>
  <rect x="1" y="1" width="30" height="30" rx="6" fill="none" stroke="rgba(255,255,255,0.2)" stroke-width="0.5"/>

  <!-- Inner building grid with 3D depth -->
  <rect x="7" y="7" width="18" height="18" rx="3" fill="url(#innerGradient)" filter="url(#shadow)"/>
  <rect x="7.5" y="7.5" width="17" height="17" rx="2.5" fill="none" stroke="rgba(37,99,235,0.1)" stroke-width="0.5"/>

  <!-- Building windows/units in 3x3 grid -->
  <g fill="#2563EB" opacity="0.8">
    <!-- Top row -->
    <rect x="10" y="10" width="3" height="3" rx="0.5"/>
    <rect x="14.5" y="10" width="3" height="3" rx="0.5"/>
    <rect x="19" y="10" width="3" height="3" rx="0.5"/>

    <!-- Middle row -->
    <rect x="10" y="14.5" width="3" height="3" rx="0.5"/>
    <rect x="14.5" y="14.5" width="3" height="3" rx="0.5"/>
    <rect x="19" y="14.5" width="3" height="3" rx="0.5"/>

    <!-- Bottom row -->
    <rect x="10" y="19" width="3" height="3" rx="0.5"/>
    <rect x="14.5" y="19" width="3" height="3" rx="0.5"/>
    <rect x="19" y="19" width="3" height="3" rx="0.5"/>
  </g>

  <!-- Subtle highlight for 3D effect -->
  <rect x="7" y="7" width="18" height="2" rx="3" fill="rgba(255,255,255,0.3)"/>
</svg>